<svg xmlns="http://www.w3.org/2000/svg" data-name="Flat Gradient" viewBox="0 0 64 64" id="rocket"><defs><linearGradient id="a" x1="4" x2="60" y1="32" y2="32" gradientUnits="userSpaceOnUse"><stop offset="0" stop-color="#00c0ff"></stop><stop offset="1" stop-color="#5558ff"></stop></linearGradient></defs><path fill="url(#a)" d="M42.3825,41.88573A43.231,43.231,0,0,0,55.57782,24.1786a21.1592,21.1592,0,0,1-10.09094-5.63583,23.0463,23.0463,0,0,1-5.657-10.09829,44.03747,44.03747,0,0,0-13.58455,8.67683A53.80243,53.80243,0,0,0,15.63816,31.90079a3.35051,3.35051,0,0,1,1.23748.51613l6.66136,6.6614,6.86644-6.86643a1.00006,1.00006,0,1,1,1.4143,1.4143L24.9513,40.49262,31.61264,47.154a3.34549,3.34549,0,0,1,.51623,1.23749C35.98134,46.44377,36.88132,46.04888,42.3825,41.88573ZM34.19375,29.83588a6.30811,6.30811,0,0,1-.00708-8.91714c6.11461-5.69691,14.62048,2.812,8.92415,8.9243A6.30815,6.30815,0,0,1,34.19375,29.83588Zm-21.44082,3.6913a8.655,8.655,0,0,0-5.65007,2.24177c-3.40338,1.926-.92623-7.74424-.12009-8.86042,2.08042-5.2779,7.45821-9.98375,14.51757-7.64459a53.15185,53.15185,0,0,0-7.67253,11.78821C13.542,31.68764,13.00609,32.88713,12.75293,33.52718Zm22.85518-5.10553A4.30538,4.30538,0,0,1,41.69659,22.333,4.30538,4.30538,0,0,1,35.60811,28.42165ZM41.71778,7.70212a63.94709,63.94709,0,0,1,17.212-3.67719,1.02875,1.02875,0,0,1,1.06781,1.0678A63.29072,63.29072,0,0,1,56.3204,22.30481a19.25246,19.25246,0,0,1-9.4192-5.17638A20.74029,20.74029,0,0,1,41.71778,7.70212ZM12.49134,42.5009a.986.986,0,0,1-.26169-.94052,51.023,51.023,0,0,1,2.58819-7.80687,6.431,6.431,0,0,1,.79908.23333l6.50578,6.50578-5.81982,5.81983Zm17.5514,5.91176a7.424,7.424,0,0,1,.23337.79912,51.02078,51.02078,0,0,1-7.80691,2.58815.98587.98587,0,0,1-.94052-.26168l-3.8115-3.8115L23.537,41.90692ZM37.192,57.00454a16.93763,16.93763,0,0,1-8.25238,1.59109,1,1,0,0,1-.67892-1.66887,8.758,8.758,0,0,0,2.2417-5.65011c.18386-.0707.37476-.14852.55161-.2262,4.99388-2.22047,7.01908-3.36267,12.58723-7.609.36061-.28991.72834-.6011,1.10315-.91928a11.36126,11.36126,0,0,1-.01416,7.3119C43.13208,54.21841,39.12256,56.10649,37.192,57.00454ZM15.655,49.78673,7.07015,58.27149a1.00008,1.00008,0,0,1-1.406-1.42259L14.249,48.36415a1.00007,1.00007,0,1,1,1.406,1.42258Zm-4.1324-4.12826L5.70108,51.38058a1.0001,1.0001,0,0,1-1.40187-1.42673l5.82155-5.72211a.97944.97944,0,0,1,1.4143.01243A.99984.99984,0,0,1,11.52263,45.65847Zm8.31073,8.31073L14.01146,59.691a1.00009,1.00009,0,1,1-1.40186-1.42672l5.82189-5.72177a.98412.98412,0,0,1,1.4143.01243A.99984.99984,0,0,1,19.83336,53.9692Z"></path></svg>